# xmcd CD database file
#
# Track frame offsets:
#	150
#	18943
#	41438
#	53780
#	67055
#	84284
#	100414
#	113251
#	126861
#	140708
#	154016
#	168221
#	180521
#	194373
#	212477
#	222894
#	232869
#	244608
#	267673
#	287011
#
# Disc length: 4047 seconds
#
# Revision: 0
# Processed by: cddbd v1.5.2PL0 Copyright (c) Steve Scherf et al.
# Submitted via: CDex 1.51
#
DISCID=110fcd14
DTITLE=In The Mood For The Blues - CD1
DYEAR=2004
DGENRE=Blues
TTITLE0=Gary Moore - Still Got the Blues
TTITLE1=B.B.King - The Thrill Is Gone
TTITLE2=John Lee Hooker - I'm in the Mood
TTITLE3=Muddy Waters - Mannish Boy
TTITLE4=Fleetwood Mac - I Need Your Love So Badly
TTITLE5=John Mayall and Bluesbreakers - All Your Love
TTITLE6=Tommy Tucker - High Heeled Sneakers
TTITLE7=Koko Taylor - Wang Dang Doodle
TTITLE8=Howlin Wolf - Smokestack Lightnin'
TTITLE9=Taj Mahal - Statesboro Blues
TTITLE10=Sonny Boy Williamson - Help Me
TTITLE11=Bo Diddley - Bo Diddley
TTITLE12=Albert King - Searchin for a Woman
TTITLE13=The Commitments - Mustang Sally
TTITLE14=Buddy Guy - First Time I Met The Blues
TTITLE15=Chuck Berry - Down the Road Apiece
TTITLE16=Little Walter - My Babe
TTITLE17=Chris Rea - Nineteen Blues
TTITLE18=Robert Cray - right Next Door (Because of Me)
TTITLE19=Santana - Black Magic Woman
EXTD=YEAR: 2004
EXTT0=
EXTT1=
EXTT2=
EXTT3=
EXTT4=
EXTT5=
EXTT6=
EXTT7=
EXTT8=
EXTT9=
EXTT10=
EXTT11=
EXTT12=
EXTT13=
EXTT14=
EXTT15=
EXTT16=
EXTT17=
EXTT18=
EXTT19=
PLAYORDER=
